<svg t="1747826687992" class="icon" viewBox="0 0 1024 1024" version="1.1" xmlns="http://www.w3.org/2000/svg" p-id="2135" width="200" height="200"><path d="M738.946 838.008l-168.362 77.116a200.37 200.37 0 0 1-128.102 3.472L45.834 801.354c-21.594-6.64-35.014-30.07-29.662-52.018 9.976-40.912 52.036-65.37 92.588-53.692l129.254 38.766 183.57 29.172a30.934 30.934 0 0 0 31.434-14.724c5.684-9.546-1.194-21.648-12.304-21.648h-105.904c-32.676 0-59.166-26.49-59.166-59.166s26.49-59.166 59.166-59.166h82.34c32.224 0 64.166-6.002 94.194-17.698l1.176-0.456c57.844-22.282 121.864-22.542 180.292-1.83l46.14 16.356h270.054V837.84l-270.06 0.168z" fill="#FEDAAA" p-id="2136"></path><path d="M453.016 748.856c-0.774 1.302-1.64 2.526-2.576 3.678l69.514 11.046a30.934 30.934 0 0 0 31.434-14.724c5.684-9.546-1.194-21.648-12.304-21.648h-98.372c11.11 0.002 17.988 12.102 12.304 21.648zM540.852 918.596l-396.646-117.24c-21.594-6.642-35.014-30.07-29.662-52.02 4.444-18.222 15.26-33.166 29.466-43.12l-35.248-10.572c-40.552-11.678-82.612 12.782-92.588 53.692-5.352 21.948 8.07 45.378 29.662 52.02l396.646 117.24a200.328 200.328 0 0 0 108.068 2.688 202.68 202.68 0 0 1-9.698-2.688zM334.808 727.21h98.372c-32.676 0-59.166-26.49-59.166-59.166s26.49-59.166 59.166-59.166h82.34c32.224 0 64.166-6.002 94.194-17.698l1.176-0.456a254.246 254.246 0 0 1 43.13-12.354c-47.188-9.032-96.236-5.084-141.502 12.354l-1.176 0.456a259.52 259.52 0 0 1-94.194 17.698h-82.34c-32.676 0-59.166 26.49-59.166 59.166 0 32.674 26.49 59.166 59.166 59.166z" fill="#FF9911" p-id="2137"></path><path d="M584.964 329.652h-78.952c0-128.704 104.334-233.04 233.04-233.04h78.952c-0.002 128.706-104.336 233.04-233.04 233.04z" fill="#BAE533" p-id="2138"></path><path d="M791.252 96.614h-52.202c-128.704 0-233.04 104.334-233.04 233.04h52.216c0-128.7 104.328-233.032 233.026-233.04z" fill="#00DD7E" p-id="2139"></path><path d="M449.45 348.242h56.56c0-92.2-74.744-166.944-166.944-166.944h-56.56c0 92.2 74.742 166.944 166.944 166.944z" fill="#BAE533" p-id="2140"></path><path d="M332.396 181.298h6.694-56.584c0 92.2 74.744 166.944 166.944 166.944h49.866c-92.19-0.012-166.92-74.75-166.92-166.944z" fill="#00DD7E" p-id="2141"></path><path d="M453.016 748.856c5.684-9.546-1.194-21.648-12.304-21.648h-105.904c-7.236 0-14.166-1.304-20.574-3.68a193.54 193.54 0 0 0 6.016 23.95l101.334 16.104a30.932 30.932 0 0 0 31.432-14.726zM334.808 608.878h82.34c32.224 0 64.166-6.002 94.194-17.698l1.176-0.456c50.29-19.374 105.25-22.09 157.142-8.86-34.77-53.518-95.07-88.92-163.648-88.92-79.73 0-148.272 47.852-178.51 116.396a59.906 59.906 0 0 1 7.306-0.462z" fill="#FF9911" p-id="2142"></path><path d="M390.776 608.878c26.256-59.1 81.024-102.704 146.844-113.38a196.272 196.272 0 0 0-31.61-2.552c-79.73 0-148.272 47.852-178.51 116.396a59.508 59.508 0 0 1 7.306-0.464h55.97z" fill="#FF6D24" p-id="2143"></path><path d="M383.308 747.478a194.35 194.35 0 0 1-5.276-20.268h-43.226c-7.236 0-14.166-1.304-20.574-3.68a193.54 193.54 0 0 0 6.016 23.95l101.334 16.104c8.664 1.376 17.3-1.006 23.944-6.216l-62.218-9.89z" fill="#016EF1" p-id="2144"></path><path d="M589.522 609.968l1.652 29.956c32.826-1.814 65.336 2.892 96.622 13.982l26.822 9.508 10.024-28.276-26.822-9.508c-35.05-12.426-71.494-17.694-108.298-15.662zM555.006 644.662l-6.13-29.368a270.002 270.002 0 0 0-41.75 12.306l10.786 27.994a239.914 239.914 0 0 1 37.094-10.932zM564.182 846.724c-37.544 13.51-79.142 14.5-117.29 2.768l-55.4-17.04-8.818 28.674 55.398 17.04c20.512 6.308 41.882 9.452 63.248 9.452 25.302 0 50.596-4.408 74.446-13.184l1.246-0.458 71.126-41.584-15.14-25.898-68.816 40.23zM302.584 805.1l50.008 15.384-8.82 28.674-50.008-15.382zM714.224 131.986h42.44v30h-42.44zM691.988 164.226l-6.014-29.39c-37.302 7.632-70.344 30.594-90.658 62.998l25.418 15.934c15.978-25.488 41.95-43.546 71.254-49.542z" fill="#FFFFFF" p-id="2145"></path><path d="M346.794 331.434l21.65-21.65a153.024 153.024 0 0 1-32.164-27.248l-21.25 21.25a183.416 183.416 0 0 0 31.764 27.648z" p-id="2146"></path><path d="M741.526 590.25l-43.708-15.494a281.008 281.008 0 0 0-18.858-5.936c-36.456-52.88-94.342-85.826-157.95-90.324v-133.84h63.954c136.768 0 248.04-111.27 248.04-248.04v-15h-93.954c-113.846 0-210.01 77.102-239.052 181.828-30.538-57.72-91.212-97.144-160.93-97.144h-71.56v15c0 36.284 10.68 70.116 29.056 98.53l21.812-21.812c-10.846-18.458-17.934-39.376-20.134-61.718h40.826c72.594 0 133.42 51.19 148.382 119.358l-84.214-62.904-17.954 24.036 75.58 56.454h-11.412a151.12 151.12 0 0 1-52.604-9.432l-22.974 22.974c23.032 10.56 48.628 16.458 75.578 16.458h41.56v115.246c-74.516 5.326-140.964 50.038-173.852 117.526-32.398 7.942-56.514 37.214-56.514 72.026 0 24.356 11.802 46.008 29.988 59.538l-49.268-7.83-128.45-38.526c-23.558-6.782-48.214-3.746-69.42 8.554-21.208 12.302-36.086 32.19-41.892 56-7.21 29.576 10.656 60.938 39.984 69.958l396.488 117.194c20.512 6.308 41.88 9.452 63.246 9.452 25.302 0 50.596-4.408 74.446-13.184l0.542-0.2 165.918-75.996 95.428-0.06v-30l-73.626 0.046 22.118-41.226-26.436-14.184-31.594 58.888-163.242 74.77c-37.722 13.748-79.6 14.824-118.14 2.97l-310.856-91.88 10.12-36.844-28.93-7.946-9.964 36.284-56.854-16.804c-14.03-4.316-22.958-19.944-19.5-34.128 3.852-15.796 13.724-28.992 27.798-37.156 9.186-5.328 19.344-8.038 29.598-8.038 5.454 0 10.936 0.766 16.308 2.314l113.952 34.178-10.018 41.446 29.16 7.048 10.046-41.564 171.638 27.276c1.202 0.19 2.4 0.33 3.596 0.426 0.36 0.03 0.716 0.028 1.074 0.048 0.832 0.048 1.664 0.096 2.492 0.098l0.164 0.006c1.016 0 2.028-0.034 3.034-0.102 0.182-0.012 0.362-0.04 0.544-0.054 0.89-0.07 1.776-0.158 2.654-0.278 0.368-0.05 0.732-0.12 1.1-0.18 0.69-0.112 1.378-0.23 2.058-0.372 0.402-0.084 0.8-0.182 1.198-0.276a44.858 44.858 0 0 0 3.11-0.854c0.632-0.198 1.256-0.412 1.878-0.638 0.378-0.138 0.758-0.272 1.132-0.42 0.652-0.256 1.292-0.534 1.93-0.818 0.328-0.146 0.658-0.284 0.982-0.438a45.26 45.26 0 0 0 2.298-1.182c0.17-0.094 0.346-0.176 0.514-0.27a45.6 45.6 0 0 0 2.722-1.664c0.212-0.14 0.414-0.294 0.624-0.438 0.664-0.456 1.322-0.92 1.964-1.412 0.296-0.226 0.582-0.468 0.872-0.702 0.54-0.434 1.074-0.876 1.596-1.338 0.308-0.272 0.608-0.552 0.908-0.832a47.414 47.414 0 0 0 2.31-2.31c0.462-0.496 0.91-1.008 1.352-1.526 0.266-0.312 0.534-0.62 0.792-0.94a45.2 45.2 0 0 0 1.344-1.77c0.208-0.286 0.426-0.562 0.63-0.854 0.618-0.888 1.212-1.8 1.774-2.74l0.024-0.038a30.004 30.004 0 0 0 2.842-6.38c0.812-2.596 1.256-5.264 1.32-7.94h33.004v-30h-168.256c-1.206 0-2.406-0.062-3.598-0.158-0.176-0.014-0.354-0.024-0.53-0.04a44.08 44.08 0 0 1-4.048-0.572c-1.066-0.2-2.126-0.436-3.176-0.714-0.246-0.066-0.488-0.14-0.732-0.208a45.102 45.102 0 0 1-3.09-0.992c-16.9-6.202-28.992-22.456-28.992-41.48 0-22.392 16.754-40.932 38.382-43.774l0.31-0.038c0.942-0.116 1.85-0.202 2.74-0.26l0.086-0.006c0.898-0.058 1.778-0.086 2.648-0.086h28.014v62.026h30v-62.026h24.324a273.4 273.4 0 0 0 99.632-18.718l1.128-0.438c53.974-20.79 114.306-21.39 169.886-1.69l48.572 17.218H994v21.11H782.108v30H994v151.488l-54.336 0.034v30l84.336-0.05v-262.58H741.526z m-2.476-478.636h63.442c-7.732 113.258-102.342 203.04-217.53 203.04H551.16l119.824-89.502-17.954-24.036-129.72 96.894c15.372-105.284 106.258-186.396 215.74-186.396zM439.462 742.21a15.816 15.816 0 0 1-13.256 6.758 16.522 16.522 0 0 1-2.27-0.2l-41.262-6.556 56.788-0.002z m67.658-165.482l-1.224 0.474a243.568 243.568 0 0 1-88.75 16.674h-64.61c32.438-52.864 90.348-85.93 153.474-85.93 48.164 0 93.394 19.018 126.758 52.17-42.572-4.342-85.648 1.204-125.648 16.612z" p-id="2147"></path><path d="M909.664 852.9v-29.998l-42.012 0.026v30z" p-id="2148"></path></svg>