<svg t="1747826577314" class="icon" viewBox="0 0 1024 1024" version="1.1" xmlns="http://www.w3.org/2000/svg" p-id="1968" width="200" height="200"><path d="M545.470925 383.461426h-66.93985c-63.785858 0-124.831722-15.593965-176.915607-45.673898V567.159017l115.347744 170.085621h190.071576l115.347744-170.085621V337.785528c-52.081884 30.081933-113.125748 45.675898-176.911607 45.675898z" fill="#FEDAAA" p-id="1969"></path><path d="M650.326692 36.820198c-4.859989-17.055962-23.351948-26.219942-39.867911-19.759956l-66.189853 25.889942a93.547792 93.547792 0 0 1-68.153848 0L409.927227 17.058242c-16.515963-6.459986-35.005922 2.703994-39.867911 19.759956l-53.85788 178.499603H183.737731c57.495872 109.589756 171.037619 168.143626 294.793344 168.143625h66.93985c123.755724 0 237.297472-58.55387 294.793344-168.143625h-136.079697L650.326692 36.820198z" fill="#FF9911" p-id="1970"></path><path d="M301.617468 519.273124l-12.411972-1.519997c-39.973911-4.895989-70.015844-38.841914-70.015844-79.115824 0-24.059946 21.055953-42.691905 44.9359-39.767911l37.489916 4.59199v115.811742zM722.384532 519.273124l12.411972-1.519997c39.973911-4.895989 70.015844-38.841914 70.015844-79.115824 0-24.059946-21.055953-42.691905-44.9359-39.767911l-37.489916 4.59199v115.811742z" fill="#FEDAAA" p-id="1971"></path><path d="M705.07857 783.772535H318.92343c-83.961813 0-152.025662 68.065848-152.025662 152.025661v73.199837h690.212464v-73.199837c-0.004-83.961813-68.069848-152.025662-152.031662-152.025661z" fill="#7C84E7" p-id="1972"></path><path d="M443.629152 737.252638h136.721696v46.525897h-136.721696z" fill="#FEDAAA" p-id="1973"></path><path d="M319.827428 783.774535h71.385841v124.341723h-71.385841zM632.792731 783.774535h71.385841v124.341723h-71.385841zM748.672473 1008.998033H275.329527l39.191913-100.875775H709.47856z" fill="#FF9911" p-id="1974"></path><path d="M512.001 869.996343c-44.181902 0-80.001822-35.81792-80.001822-80.001822v-3.333993h160.003644v3.333993c-0.002 44.183902-35.81792 80.001822-80.001822 80.001822z" fill="#FEDAAA" p-id="1975"></path><path d="M351.007358 360.987476c-17.159962-6.403986-33.687925-14.131969-49.38989-23.199948V567.159017l115.347744 170.085621h49.38989l-115.347744-170.083621V360.987476z" fill="#FF9911" p-id="1976"></path><path d="M428.783185 36.820198a29.905933 29.905933 0 0 1 5.289989-10.313977L409.927227 17.060242c-16.515963-6.459986-35.005922 2.703994-39.867911 19.759956l-53.85788 178.499603h58.725869l53.85588-178.499603zM242.4616 215.317801H183.737731c57.495872 109.589756 171.037619 168.143626 294.793344 168.143625h58.725869c-123.755724 0-237.299472-58.55387-294.795344-168.143625z" fill="#FF6D24" p-id="1977"></path><path d="M248.579587 438.637303c0-18.12596 11.951973-33.165926 28.057937-38.233915l-12.511972-1.531996c-23.879947-2.925993-44.9359 15.707965-44.9359 39.767911 0 40.27191 30.039933 74.219835 70.015844 79.115824l12.411972 1.519997v-5.529988c-31.203931-11.061975-53.037882-40.777909-53.037881-75.107833zM751.776466 403.463382l24.977945-3.059994a39.871911 39.871911 0 0 0-16.877963-1.531996l-37.489916 4.59199v115.811742l12.411972-1.519997a79.819822 79.819822 0 0 0 16.977962-4.007991v-110.283754z" fill="#FF9911" p-id="1978"></path><path d="M216.287658 935.798196c0-83.961813 68.065848-152.025662 152.025662-152.025661h-49.38989c-83.961813 0-152.025662 68.065848-152.025662 152.025661v73.199837h49.38989v-73.199837z" fill="#016EF1" p-id="1979"></path><path d="M443.629152 737.252638h49.38989v46.525897h-49.38989z" fill="#FF9911" p-id="1980"></path><path d="M319.827428 783.774535h35.69192v124.341723h-35.69192zM632.792731 783.774535h35.691921v124.341723h-35.691921zM314.52144 908.122258L275.329527 1008.998033h49.39189l39.191913-100.875775z" fill="#FF6D24" p-id="1981"></path><path d="M481.389068 789.994521v-3.333993H431.999178v3.333993c0 44.181902 35.81792 80.001822 80.001822 80.001822 8.619981 0 16.915962-1.379997 24.695945-3.903991-32.095929-10.405977-55.307877-40.53391-55.307877-76.097831z" fill="#FF9911" p-id="1982"></path><path d="M487.089055 316.405576h49.82589v29.999933h-49.82589zM297.745477 278.26166c40.053911 36.595919 93.039793 59.477868 153.223659 66.165853l3.313993-29.815934c-53.83388-5.983987-100.965775-26.209942-136.301697-58.497869l-20.235955 22.14795zM540.122937 112.37803l-10.289977-28.179937a57.357872 57.357872 0 0 1-39.283912 0l-48.143893-17.579961c-19.493957-7.115984-35.677921-4.153991-43.293904 7.925982l-1.013997 1.609996-24.563946 76.64983 28.567937 9.155979 22.13595-69.077846c1.777996 0.158 4.42799 0.657999 7.879983 1.915996l48.143893 17.579961a87.405805 87.405805 0 0 0 59.861866 0zM555.990902 106.576043l-10.289977-28.179938 32.299928-11.791973 10.289977 28.179937zM629.772738 947.65617h48.893891v29.999933h-48.893891zM345.327371 947.65617h262.765415v29.999933H345.327371z" fill="#FFFFFF" p-id="1983"></path><path d="M647.566698 650.756831l25.175944 16.325964 23.585948-34.777923-25.175944-16.325964zM151.893802 935.798196V963.998134h29.999933v-28.199938c0-4.66199 0.247999-9.267979 0.705998-13.811969H152.4998a168.687624 168.687624 0 0 0-0.605998 13.811969z" p-id="1984"></path><path d="M719.184539 769.410567v-0.637999h-123.819725v-16.525963h19.623957l40.911909-60.327866-25.175944-16.325963-31.63993 46.651896h-174.169612l-108.299759-159.691645v-199.757555c48.153893 23.179948 103.14977 35.665921 161.91564 35.665921h66.94185c58.763869 0 113.757747-12.483972 161.91564-35.665921v199.757555L687.998608 591.142964l25.175944 16.325963 24.213946-35.70392v-39.233913c47.041895-6.149986 82.427816-46.369897 82.427817-93.893791 0-15.759965-6.769985-30.789931-18.571959-41.235908s-27.539939-15.335966-43.187904-13.41997l-20.665954 2.531994v-40.08991c48.837891-30.003933 88.873802-72.121839 116.161742-124.133724l11.525974-21.967951h-149.747667l-50.609887-167.731627a45.159899 45.159899 0 0 0-23.291948-27.907937 45.149899 45.149899 0 0 0-36.427919-1.589997L538.80494 28.980215a78.333826 78.333826 0 0 1-57.225872 0L415.391215 3.090273a45.143899 45.143899 0 0 0-36.431919 1.589997 45.159899 45.159899 0 0 0-23.291948 27.907937L305.059461 200.319834H158.927786l11.525974 21.967951c27.287939 52.013884 67.32385 94.12979 116.161742 124.133724v40.08991l-20.665954-2.531994a55.105877 55.105877 0 0 0-43.187904 13.41997 55.099877 55.099877 0 0 0-18.571959 41.235908c0 47.521894 35.383921 87.743805 82.427817 93.893791v39.233913l122.397727 180.477598h19.623957v16.525963h-123.819725v0.639999c-70.673843 5.941987-128.931713 56.063875-147.043672 122.575727h31.31393c16.869962-49.853889 61.693863-86.939806 115.729742-92.491794v93.627791h-0.561998l-39.191913 100.877776H151.893802v29.999933h720.212396V935.798196c0-87.345806-67.40585-159.197646-152.921659-166.387629z m-432.569037-267.239405c-30.183933-5.819987-52.427883-32.383928-52.427883-63.533859 0-7.279984 3.001993-13.945969 8.453981-18.769958 4.65399-4.117991 10.421977-6.301986 16.505963-6.301986 1.041998 0 2.093995 0.064 3.151993 0.194l24.313946 2.977993v85.43381z m475.084942-88.411803c7.215984-0.887998 14.205968 1.283997 19.657956 6.107986 5.451988 4.823989 8.453981 11.489974 8.453981 18.769958 0 31.147931-22.24195 57.713871-52.427883 63.533859v-85.43381l24.315946-2.977993z m-551.904771-183.441592h257.539426v-29.999933h-130.937708l48.023893-159.167646 0.066-0.221999a14.897967 14.897967 0 0 1 7.797983-9.367979 14.891967 14.891967 0 0 1 12.179972-0.531999l66.187853 25.889942a108.249759 108.249759 0 0 0 79.083824 0l66.191853-25.889942a14.901967 14.901967 0 0 1 12.177972 0.531999 14.897967 14.897967 0 0 1 7.797983 9.367979l57.141873 189.389578h121.16773c-55.793876 86.965806-154.385656 138.141692-268.737402 138.141693h-66.94185c-114.357745 0.002-212.949526-51.175886-268.739402-138.141693zM647.798698 798.772501h41.383907v94.34979H647.798698v-94.34979z m-189.161579-46.529896h106.723762v16.525963h-106.723762v-16.525963z m117.315739 49.41989C570.44087 831.956428 543.860929 854.998376 511.999 854.998376c-31.859929 0-58.44187-23.039949-63.953858-53.335881h127.907716z m-169.747622-2.889994h11.215975c4.44599 48.281892 45.155899 86.225808 94.579789 86.225808 49.42189 0 90.135799-37.941916 94.579789-86.225808h11.215975v94.34979H406.205236v-94.34979z m-71.385841 0h41.383907v94.34979H334.819395v-94.34979zM297.249478 993.998067l27.535939-70.877842h374.429166L726.752522 993.998067H297.249478z m544.856787 0h-78.433825v-124.027724h-29.999934v58.999869l-13.925969-35.845921h-0.561998v-93.627791c68.955846 7.083984 122.921726 65.509854 122.921726 136.303696V993.998067z" p-id="1985"></path></svg>